# xmcd CD database file
# Copyright (C) 1995-1998 Ti Kan
#
# Track frame offsets:
#	150
#	18737
#	34080
#	48882
#	66442
#	93112
#	102965
#	125195
#	146152
#	160510
#
# Disc length: 2434 seconds
#
# Revision: 1
# Processed by: cddbd v1.4PL0 Copyright (c) Steve Scherf et al.
# Submitted via: CDex 1.30Release
#
DISCID=8709800a
DTITLE=Various Artist - Zydeco Barnyard
DYEAR=1998
DGENRE=Country
TTITLE0=Nathan and The Zydeco Cha Chas - Everything On The Hog
TTITLE1=Boozoo Chavis and the Majic Sounds - Johnny Billy Goat
TTITLE2=John Delafose and the Eunice Playboys - Watch That Dog
TTITLE3=Boozoo Chavis and the Majic Sounds - Sugar Bee
TTITLE4=Nathan and The Zydeco Cha Chas - You're My Mule
TTITLE5=Boozoo Chavis and the Majic Sounds - Billy Goat Number Three
TTITLE6=Beau Jocque and the Zydeco Hi-Rollers - Shaggy Dog 2-Step
TTITLE7=Nathan and The Zydeco Cha Chas - Zydeco Hog
TTITLE8=Boozoo Chavis and the Majic Sounds - Dog Hill
TTITLE9=Lynn August and the Hot August Knights - I'm A Hog For You
EXTD=YEAR: 1998 ID3G:   2
EXTT0=
EXTT1=
EXTT2=
EXTT3=
EXTT4=
EXTT5=
EXTT6=
EXTT7=
EXTT8=
EXTT9=
PLAYORDER=
